# xmcd
#
# Track frame offsets:
#	150
#	18805
#	34870
#	53110
#	68737
#	89872
#	102135
#	117722
#	136767
#	153330
#
# Disc length: 2443 seconds
#
# Revision: 0
# Processed by: cddbd v1.4PL0 Copyright (c) Steve Scherf et al.
# Submitted via: EasyCDDAExtractor 5.0.0.0
#
DISCID=8109890a
DTITLE=Various Artist - The Gift - A Colours Christmas
DYEAR=1986
DGENRE=Christmas
TTITLE0=Carol of the Bells
TTITLE1=O Come, O Come Emmanuel
TTITLE2=What Child is This?
TTITLE3=Jesu, Joy of Man's Desiring
TTITLE4=It Came Upon a Midnight Clear
TTITLE5=The Invitation/O Come, All Ye Faithful
TTITLE6=Bring a Torch
TTITLE7=Joy to the World
TTITLE8=Hark the Herald Angels Sing
TTITLE9=Angels We Have Heard on High/We Three Kings/God Rest Ye Merry Gentleme
TTITLE9=n (Medley)
EXTD=
EXTT0=
EXTT1=
EXTT2=
EXTT3=
EXTT4=
EXTT5=
EXTT6=
EXTT7=
EXTT8=
EXTT9=
PLAYORDER=
